<?xml version="1.0" encoding="UTF-8"?>
<svg xmlns="http://www.w3.org/2000/svg" xmlns:xlink="http://www.w3.org/1999/xlink" width="400pt" height="400pt" viewBox="0 0 375 374.999991" version="1.2">
<defs>
<clipPath id="clip1">
  <path d="M 112.5 112.5 L 262.5 112.5 L 262.5 262.5 L 112.5 262.5 Z M 112.5 112.5 "/>
</clipPath>
</defs>
<g id="surface1">
<path style=" stroke:none;fill-rule:nonzero;fill:rgb(65.098572%,65.098572%,65.098572%);fill-opacity:1;" d="M 223.078125 185.441406 C 223.078125 185.757812 223.046875 186.074219 222.984375 186.386719 C 222.921875 186.699219 222.832031 187.003906 222.710938 187.296875 C 222.585938 187.59375 222.4375 187.871094 222.261719 188.136719 C 222.082031 188.402344 221.882812 188.648438 221.65625 188.871094 C 221.429688 189.097656 221.1875 189.296875 220.921875 189.476562 C 220.65625 189.652344 220.375 189.800781 220.082031 189.925781 C 219.789062 190.046875 219.484375 190.136719 219.171875 190.199219 C 218.859375 190.261719 218.542969 190.292969 218.226562 190.292969 C 217.90625 190.292969 217.589844 190.261719 217.277344 190.199219 C 216.964844 190.136719 216.660156 190.046875 216.367188 189.925781 C 216.074219 189.800781 215.792969 189.652344 215.527344 189.476562 C 215.261719 189.296875 215.019531 189.097656 214.792969 188.871094 C 214.566406 188.648438 214.367188 188.402344 214.1875 188.136719 C 214.011719 187.871094 213.863281 187.59375 213.742188 187.296875 C 213.617188 187.003906 213.527344 186.699219 213.464844 186.386719 C 213.402344 186.074219 213.371094 185.757812 213.371094 185.441406 C 213.371094 185.121094 213.402344 184.804688 213.464844 184.492188 C 213.527344 184.179688 213.617188 183.875 213.742188 183.582031 C 213.863281 183.289062 214.011719 183.007812 214.1875 182.742188 C 214.367188 182.476562 214.566406 182.234375 214.792969 182.007812 C 215.019531 181.78125 215.261719 181.582031 215.527344 181.402344 C 215.792969 181.226562 216.074219 181.078125 216.367188 180.957031 C 216.660156 180.832031 216.964844 180.742188 217.277344 180.679688 C 217.589844 180.617188 217.90625 180.585938 218.226562 180.585938 C 218.542969 180.585938 218.859375 180.617188 219.171875 180.679688 C 219.484375 180.742188 219.789062 180.832031 220.082031 180.957031 C 220.375 181.078125 220.65625 181.226562 220.921875 181.402344 C 221.1875 181.582031 221.429688 181.78125 221.65625 182.007812 C 221.882812 182.234375 222.082031 182.476562 222.261719 182.742188 C 222.4375 183.007812 222.585938 183.289062 222.710938 183.582031 C 222.832031 183.875 222.921875 184.179688 222.984375 184.492188 C 223.046875 184.804688 223.078125 185.121094 223.078125 185.441406 Z M 223.078125 185.441406 "/>
<path style=" stroke:none;fill-rule:nonzero;fill:rgb(65.098572%,65.098572%,65.098572%);fill-opacity:1;" d="M 223.078125 169.78125 C 223.078125 170.097656 223.050781 170.414062 222.988281 170.726562 C 222.925781 171.039062 222.832031 171.34375 222.710938 171.636719 C 222.589844 171.933594 222.4375 172.210938 222.261719 172.476562 C 222.085938 172.742188 221.882812 172.988281 221.660156 173.210938 C 221.433594 173.4375 221.1875 173.640625 220.921875 173.816406 C 220.65625 173.992188 220.378906 174.140625 220.082031 174.265625 C 219.789062 174.386719 219.484375 174.476562 219.171875 174.539062 C 218.859375 174.601562 218.542969 174.632812 218.226562 174.632812 C 217.90625 174.632812 217.589844 174.601562 217.277344 174.539062 C 216.964844 174.476562 216.664062 174.386719 216.367188 174.265625 C 216.074219 174.140625 215.792969 173.992188 215.53125 173.816406 C 215.265625 173.640625 215.019531 173.4375 214.792969 173.210938 C 214.570312 172.988281 214.367188 172.742188 214.191406 172.476562 C 214.011719 172.210938 213.863281 171.933594 213.742188 171.636719 C 213.621094 171.34375 213.527344 171.039062 213.464844 170.726562 C 213.402344 170.414062 213.371094 170.097656 213.371094 169.78125 C 213.371094 169.460938 213.402344 169.144531 213.464844 168.832031 C 213.527344 168.519531 213.621094 168.21875 213.742188 167.921875 C 213.863281 167.628906 214.011719 167.347656 214.191406 167.082031 C 214.367188 166.816406 214.570312 166.574219 214.792969 166.347656 C 215.019531 166.121094 215.265625 165.921875 215.527344 165.742188 C 215.792969 165.566406 216.074219 165.417969 216.367188 165.296875 C 216.664062 165.171875 216.964844 165.082031 217.277344 165.019531 C 217.589844 164.957031 217.90625 164.925781 218.226562 164.925781 C 218.542969 164.925781 218.859375 164.957031 219.171875 165.019531 C 219.484375 165.082031 219.789062 165.171875 220.082031 165.296875 C 220.378906 165.417969 220.65625 165.566406 220.921875 165.742188 C 221.1875 165.921875 221.433594 166.121094 221.660156 166.347656 C 221.882812 166.574219 222.085938 166.816406 222.261719 167.082031 C 222.4375 167.347656 222.589844 167.628906 222.710938 167.921875 C 222.832031 168.21875 222.925781 168.519531 222.988281 168.832031 C 223.050781 169.144531 223.078125 169.460938 223.078125 169.78125 Z M 223.078125 169.78125 "/>
<path style=" stroke:none;fill-rule:nonzero;fill:rgb(65.098572%,65.098572%,65.098572%);fill-opacity:1;" d="M 155.65625 170.074219 L 150.472656 170.074219 L 150.472656 176.054688 L 144.488281 176.054688 L 144.488281 181.242188 L 150.472656 181.242188 L 150.472656 187.226562 L 155.65625 187.226562 L 155.65625 181.242188 L 161.640625 181.242188 L 161.640625 176.054688 L 155.65625 176.054688 Z M 155.65625 170.074219 "/>
<path style=" stroke:none;fill-rule:nonzero;fill:rgb(65.098572%,65.098572%,65.098572%);fill-opacity:1;" d="M 215.246094 177.605469 C 215.246094 177.925781 215.21875 178.242188 215.15625 178.554688 C 215.09375 178.867188 215 179.167969 214.878906 179.464844 C 214.757812 179.757812 214.605469 180.039062 214.429688 180.304688 C 214.253906 180.570312 214.050781 180.8125 213.828125 181.039062 C 213.601562 181.265625 213.355469 181.464844 213.089844 181.644531 C 212.824219 181.820312 212.546875 181.96875 212.25 182.089844 C 211.957031 182.214844 211.652344 182.304688 211.339844 182.367188 C 211.027344 182.429688 210.710938 182.460938 210.394531 182.460938 C 210.074219 182.460938 209.757812 182.429688 209.445312 182.367188 C 209.132812 182.304688 208.832031 182.214844 208.535156 182.089844 C 208.242188 181.96875 207.960938 181.820312 207.699219 181.644531 C 207.433594 181.464844 207.1875 181.265625 206.960938 181.039062 C 206.738281 180.8125 206.535156 180.570312 206.359375 180.304688 C 206.179688 180.039062 206.03125 179.757812 205.910156 179.464844 C 205.789062 179.167969 205.695312 178.867188 205.632812 178.554688 C 205.570312 178.242188 205.539062 177.925781 205.539062 177.605469 C 205.539062 177.289062 205.570312 176.972656 205.632812 176.660156 C 205.695312 176.347656 205.789062 176.042969 205.910156 175.75 C 206.03125 175.453125 206.179688 175.175781 206.359375 174.910156 C 206.535156 174.644531 206.738281 174.398438 206.960938 174.175781 C 207.1875 173.949219 207.433594 173.746094 207.699219 173.570312 C 207.960938 173.394531 208.242188 173.246094 208.535156 173.121094 C 208.832031 173 209.132812 172.910156 209.445312 172.847656 C 209.757812 172.785156 210.074219 172.753906 210.394531 172.753906 C 210.710938 172.753906 211.027344 172.785156 211.339844 172.847656 C 211.652344 172.910156 211.957031 173 212.25 173.121094 C 212.546875 173.246094 212.824219 173.394531 213.089844 173.570312 C 213.355469 173.746094 213.601562 173.949219 213.828125 174.175781 C 214.050781 174.398438 214.253906 174.644531 214.429688 174.910156 C 214.605469 175.175781 214.757812 175.453125 214.878906 175.75 C 215 176.042969 215.09375 176.347656 215.15625 176.660156 C 215.21875 176.972656 215.246094 177.289062 215.246094 177.605469 Z M 215.246094 177.605469 "/>
<path style=" stroke:none;fill-rule:nonzero;fill:rgb(65.098572%,65.098572%,65.098572%);fill-opacity:1;" d="M 230.910156 177.609375 C 230.910156 177.925781 230.878906 178.242188 230.816406 178.554688 C 230.753906 178.867188 230.664062 179.171875 230.542969 179.464844 C 230.417969 179.761719 230.269531 180.039062 230.09375 180.304688 C 229.914062 180.570312 229.714844 180.816406 229.488281 181.039062 C 229.261719 181.265625 229.019531 181.46875 228.753906 181.644531 C 228.488281 181.820312 228.207031 181.96875 227.914062 182.09375 C 227.621094 182.214844 227.316406 182.304688 227.003906 182.367188 C 226.691406 182.429688 226.375 182.460938 226.054688 182.460938 C 225.738281 182.460938 225.421875 182.429688 225.109375 182.367188 C 224.796875 182.304688 224.492188 182.214844 224.199219 182.09375 C 223.90625 181.96875 223.625 181.820312 223.359375 181.644531 C 223.09375 181.46875 222.851562 181.265625 222.625 181.039062 C 222.398438 180.816406 222.199219 180.570312 222.019531 180.304688 C 221.84375 180.039062 221.695312 179.761719 221.570312 179.464844 C 221.449219 179.171875 221.359375 178.867188 221.296875 178.554688 C 221.234375 178.242188 221.203125 177.925781 221.203125 177.609375 C 221.203125 177.289062 221.234375 176.972656 221.296875 176.660156 C 221.359375 176.347656 221.449219 176.046875 221.570312 175.75 C 221.695312 175.457031 221.84375 175.175781 222.019531 174.910156 C 222.199219 174.644531 222.398438 174.402344 222.625 174.175781 C 222.851562 173.949219 223.09375 173.75 223.359375 173.570312 C 223.625 173.394531 223.90625 173.246094 224.199219 173.125 C 224.492188 173 224.796875 172.910156 225.109375 172.847656 C 225.421875 172.785156 225.738281 172.753906 226.054688 172.753906 C 226.375 172.753906 226.691406 172.785156 227.003906 172.847656 C 227.316406 172.910156 227.621094 173 227.914062 173.125 C 228.207031 173.246094 228.488281 173.394531 228.753906 173.570312 C 229.019531 173.75 229.261719 173.949219 229.488281 174.175781 C 229.714844 174.402344 229.914062 174.644531 230.09375 174.910156 C 230.269531 175.175781 230.417969 175.457031 230.542969 175.75 C 230.664062 176.046875 230.753906 176.347656 230.816406 176.660156 C 230.878906 176.972656 230.910156 177.289062 230.910156 177.609375 Z M 230.910156 177.609375 "/>
<g clip-path="url(#clip1)" clip-rule="nonzero">
<path style=" stroke:none;fill-rule:nonzero;fill:rgb(65.098572%,65.098572%,65.098572%);fill-opacity:1;" d="M 187.488281 112.457031 C 146.078125 112.457031 112.511719 146.027344 112.511719 187.433594 C 112.511719 228.84375 146.078125 262.414062 187.488281 262.414062 C 228.898438 262.414062 262.46875 228.84375 262.46875 187.433594 C 262.46875 146.027344 228.898438 112.457031 187.488281 112.457031 Z M 229.636719 222.453125 L 222.316406 222.453125 L 206.550781 197.304688 L 167.777344 197.304688 L 152.011719 222.453125 L 144.691406 222.453125 C 138.921875 222.453125 134.246094 217.777344 134.246094 212.007812 L 136.566406 175.441406 C 136.566406 175.324219 136.578125 175.230469 136.582031 175.121094 C 136.582031 175.007812 136.566406 174.890625 136.566406 174.773438 C 136.566406 162.425781 146.574219 152.414062 158.921875 152.414062 C 164.039062 152.414062 167.582031 154.15625 171.351562 157.050781 C 176.175781 155.652344 178.574219 154.445312 185.113281 154.085938 L 189.210938 154.085938 C 195.75 154.445312 198.152344 155.652344 202.972656 157.050781 C 206.742188 154.15625 210.285156 152.414062 215.402344 152.414062 C 227.75 152.414062 237.757812 162.425781 237.757812 174.773438 C 237.757812 174.890625 237.746094 175.007812 237.746094 175.121094 C 237.746094 175.230469 237.757812 175.324219 237.757812 175.441406 L 240.082031 212.007812 C 240.085938 217.777344 235.40625 222.453125 229.636719 222.453125 Z M 229.636719 222.453125 "/>
</g>
</g>
</svg>
